<svg class="templates_bar--headerIconLeft--8kLVk" width="16" height="17" viewBox="0 0 16 17" fill="none" xmlns="http://www.w3.org/2000/svg"><path d="M0.997498 3.32344C0.997498 2.22161 1.89071 1.3284 2.99254 1.3284H12.9678C14.0696 1.3284 14.9628 2.22161 14.9628 3.32344V13.2987C14.9628 14.4005 14.0696 15.2937 12.9678 15.2937H2.99254C1.89071 15.2937 0.997498 14.4005 0.997498 13.2987V3.32344Z" fill="#9747FF"/><mask id="path-2-inside-1_1042_9371" fill="white"><path fill-rule="evenodd" clip-rule="evenodd" d="M2.99255 4.32095H12.9678V12.3011H2.99255V4.32095ZM3.99007 5.31847H11.9702V7.31355H3.99007V5.31847ZM11.9702 8.31107H6.98264V11.3036H11.9702V8.31107ZM5.98512 11.3036H3.99007V8.31107H5.98512V11.3036Z"/></mask><path d="M3.99007 5.31847V4.32095H2.99255V5.31847H3.99007ZM11.9702 5.31847H12.9678V4.32095H11.9702V5.31847ZM11.9702 7.31355V8.31107H12.9678V7.31355H11.9702ZM3.99007 7.31355H2.99255V8.31107H3.99007V7.31355ZM2.99255 4.32095V3.32343H1.99503V4.32095H2.99255ZM12.9678 4.32095H13.9653V3.32343H12.9678V4.32095ZM12.9678 12.3011V13.2986H13.9653V12.3011H12.9678ZM2.99255 12.3011H1.99503V13.2986H2.99255V12.3011ZM11.9702 8.31107H12.9678V7.31355H11.9702V8.31107ZM6.98264 8.31107V7.31355H5.98512V8.31107H6.98264ZM6.98264 11.3036H5.98512V12.3011H6.98264V11.3036ZM11.9702 11.3036V12.3011H12.9678V11.3036H11.9702ZM5.98512 11.3036V12.3011H6.98264V11.3036H5.98512ZM3.99007 11.3036H2.99255V12.3011H3.99007V11.3036ZM3.99007 8.31107V7.31355H2.99255V8.31107H3.99007ZM5.98512 8.31107H6.98264V7.31355H5.98512V8.31107ZM3.99007 6.316H11.9702V4.32095H3.99007V6.316ZM10.9727 5.31847V7.31355H12.9678V5.31847H10.9727ZM4.9876 7.31355V5.31847H2.99255V7.31355H4.9876ZM11.9702 7.31355H6.98264V9.30859H11.9702V7.31355ZM5.98512 8.31107V11.3036H7.98016V8.31107H5.98512ZM6.98264 12.3011H11.9702V10.3061H6.98264V12.3011ZM12.9678 11.3036V8.31107H10.9727V11.3036H12.9678ZM5.98512 10.3061H3.99007V12.3011H5.98512V10.3061ZM4.9876 11.3036V8.31107H2.99255V11.3036H4.9876ZM3.99007 9.30859H5.98512V7.31355H3.99007V9.30859ZM4.9876 8.31107V11.3036H6.98264V8.31107H4.9876ZM11.9702 6.31603H3.99007V8.31107H11.9702V6.31603ZM3.99007 12.3011V4.32095H1.99503V12.3011H3.99007ZM2.99255 5.31847H12.9678V3.32343H2.99255V5.31847ZM11.9702 4.32095V12.3011H13.9653V4.32095H11.9702ZM12.9678 11.3036H2.99255V13.2986H12.9678V11.3036Z" fill="white" mask="url(#path-2-inside-1_1042_9371)"/></svg>